<svg width="24" height="20" viewBox="0 0 24 20" fill="none" xmlns="http://www.w3.org/2000/svg">
<path fill-rule="evenodd" clip-rule="evenodd" d="M19.2909 3.2C19.8035 3.1999 20.2257 3.53531 20.2501 3.96192L21.1188 19.1619C21.1313 19.3805 21.0358 19.5938 20.8546 19.7521C20.6734 19.9104 20.4223 20 20.1597 20H4.79974C4.53726 19.9999 4.28627 19.9103 4.10518 19.752C3.92408 19.5936 3.82868 19.3804 3.84118 19.1619L4.70979 3.96192C4.73418 3.53534 5.15635 3.19994 5.66883 3.2H8.68639C8.68639 1.43269 10.4056 0 12.5264 0C14.6472 0 16.3664 1.43269 16.3664 3.2H19.2909ZM15.4064 3.2C15.4046 1.87514 14.1162 0.801499 12.5264 0.8C10.9366 0.801499 9.64819 1.87514 9.64639 3.2H15.4064ZM5.66883 4H8.6864V6.8C8.6864 7.02091 8.90131 7.2 9.1664 7.2C9.4315 7.2 9.6464 7.02091 9.6464 6.8V4H15.4064V6.8C15.4064 7.02091 15.6213 7.2 15.8864 7.2C16.1515 7.2 16.3664 7.02091 16.3664 6.8V4H19.2799L19.9744 16H4.98311L5.66883 4ZM4.93693 16.8L4.79974 19.2H20.1597L20.0206 16.8H4.93693Z" fill="#333333"/>
</svg>
